<?xml version="1.0" encoding="iso-8859-1"?>
<!-- Generator: Adobe Illustrator 19.0.0, SVG Export Plug-In . SVG Version: 6.00 Build 0)  -->
<svg version="1.1" id="Capa_1" xmlns="http://www.w3.org/2000/svg" xmlns:xlink="http://www.w3.org/1999/xlink" x="0px" y="0px"
	 viewBox="0 0 512.07 512.07" style="enable-background:new 0 0 512.07 512.07;" xml:space="preserve">
<g transform="translate(0 -1)">
	<g transform="translate(1 2)">
		<path style="fill:#7FACFA;" d="M92.9,391.603v110.933H7.567V391.603c0.028-9.414,7.652-17.039,17.067-17.067h51.2
			C85.248,374.564,92.873,382.189,92.9,391.603z"/>
		<path style="fill:#E3E7F2;" d="M67.3,391.603v110.933H7.567V391.603c0.028-9.414,7.652-17.039,17.067-17.067h25.6
			C59.648,374.564,67.273,382.189,67.3,391.603z"/>
		<path style="fill:#7FACFA;" d="M229.434,272.137v230.4H144.1v-230.4c0.028-9.414,7.652-17.039,17.067-17.067h51.2
			C221.781,255.097,229.406,262.722,229.434,272.137z"/>
		<path style="fill:#E3E7F2;" d="M203.834,272.137v230.4H144.1v-230.4c0.028-9.414,7.652-17.039,17.067-17.067h25.6
			C196.181,255.097,203.806,262.722,203.834,272.137z"/>
		<path style="fill:#7FACFA;" d="M365.967,323.337v179.2h-85.333v-179.2c0.027-9.414,7.652-17.039,17.067-17.067h51.2
			C358.314,306.297,365.939,313.922,365.967,323.337z"/>
		<path style="fill:#E3E7F2;" d="M340.367,323.337v179.2h-59.733v-179.2c0.027-9.414,7.652-17.039,17.067-17.067h25.6
			C332.714,306.297,340.339,313.922,340.367,323.337z"/>
		<path style="fill:#7FACFA;" d="M502.5,255.07v247.467h-85.333V255.07c0.027-9.414,7.652-17.039,17.067-17.067h51.2
			C494.848,238.031,502.473,245.656,502.5,255.07z"/>
		<g>
			<path style="fill:#E3E7F2;" d="M476.9,255.07v247.467h-59.733V255.07c0.027-9.414,7.652-17.039,17.067-17.067h25.6
				C469.248,238.031,476.873,245.656,476.9,255.07z"/>
			<circle style="fill:#E3E7F2;" cx="50.234" cy="212.403" r="42.667"/>
			<circle style="fill:#E3E7F2;" cx="186.767" cy="50.27" r="42.667"/>
			<circle style="fill:#E3E7F2;" cx="459.834" cy="67.337" r="42.667"/>
			<circle style="fill:#E3E7F2;" cx="323.3" cy="152.67" r="42.667"/>
		</g>
		<g>
			<path style="fill:#FFFFFF;" d="M50.234,374.537c-9.414,0.028-17.039,7.652-17.067,17.067v110.933h-25.6V391.603
				c0.028-9.414,7.652-17.039,17.067-17.067H50.234z"/>
			<path style="fill:#FFFFFF;" d="M186.767,255.07c-9.414,0.028-17.039,7.652-17.067,17.067v230.4h-25.6v-230.4
				c0.028-9.414,7.652-17.039,17.067-17.067H186.767z"/>
			<path style="fill:#FFFFFF;" d="M323.3,306.27c-9.414,0.027-17.039,7.652-17.067,17.067v179.2h-25.6v-179.2
				c0.027-9.414,7.652-17.039,17.067-17.067H323.3z"/>
			<path style="fill:#FFFFFF;" d="M459.834,238.003c-9.414,0.028-17.039,7.652-17.067,17.067v247.467h-25.6V255.07
				c0.027-9.414,7.652-17.039,17.067-17.067H459.834z"/>
			<path style="fill:#FFFFFF;" d="M63.034,253.193c-4.156,1.232-8.466,1.864-12.8,1.877c-23.564,0-42.667-19.103-42.667-42.667
				s19.103-42.667,42.667-42.667c4.334,0.013,8.644,0.645,12.8,1.877c-17.782,5.633-29.867,22.136-29.867,40.789
				S45.251,247.56,63.034,253.193z"/>
			<path style="fill:#FFFFFF;" d="M199.567,91.059c-4.156,1.232-8.466,1.864-12.8,1.877c-23.564,0-42.667-19.103-42.667-42.667
				s19.103-42.667,42.667-42.667c4.334,0.013,8.644,0.645,12.8,1.877C181.784,15.113,169.7,31.617,169.7,50.27
				S181.784,85.427,199.567,91.059z"/>
			<path style="fill:#FFFFFF;" d="M472.634,108.126c-4.156,1.232-8.466,1.864-12.8,1.877c-15.243,0-29.329-8.132-36.95-21.333
				c-7.622-13.201-7.622-29.466,0-42.667c7.622-13.201,21.707-21.333,36.95-21.333c4.334,0.013,8.644,0.645,12.8,1.877
				c-17.782,5.633-29.867,22.136-29.867,40.789S454.851,102.493,472.634,108.126z"/>
			<path style="fill:#FFFFFF;" d="M336.1,193.459c-4.156,1.232-8.466,1.864-12.8,1.877c-23.564,0-42.667-19.103-42.667-42.667
				s19.103-42.667,42.667-42.667c4.334,0.013,8.644,0.645,12.8,1.877c-17.782,5.633-29.867,22.136-29.867,40.789
				S318.318,187.827,336.1,193.459z"/>
		</g>
	</g>
	<g>
		<path style="fill:#428DFF;" d="M76.834,368.003h-51.2c-14.132,0.015-25.585,11.468-25.6,25.6v110.933
			c0,4.713,3.821,8.533,8.533,8.533H93.9c4.713,0,8.533-3.82,8.533-8.533V393.603C102.418,379.471,90.966,368.019,76.834,368.003z
			 M85.367,496.003H17.1v-102.4c0.006-4.71,3.823-8.527,8.533-8.533h51.2c4.71,0.006,8.527,3.823,8.533,8.533V496.003z"/>
		<path style="fill:#428DFF;" d="M213.367,248.537h-51.2c-14.132,0.015-25.585,11.468-25.6,25.6v230.4
			c0,4.713,3.821,8.533,8.533,8.533h85.333c4.713,0,8.533-3.82,8.533-8.533v-230.4C238.951,260.004,227.499,248.552,213.367,248.537
			z M221.9,496.003h-68.267V274.137c0.006-4.71,3.823-8.527,8.533-8.533h51.2c4.71,0.006,8.527,3.823,8.533,8.533V496.003z"/>
		<path style="fill:#428DFF;" d="M349.9,299.737h-51.2c-14.132,0.015-25.585,11.468-25.6,25.6v179.2
			c0,4.713,3.821,8.533,8.533,8.533h85.333c4.713,0,8.533-3.82,8.533-8.533v-179.2C375.485,311.204,364.032,299.752,349.9,299.737z
			 M358.434,496.003h-68.267V325.337c0.006-4.71,3.823-8.527,8.533-8.533h51.2c4.71,0.006,8.527,3.823,8.533,8.533V496.003z"/>
		<path style="fill:#428DFF;" d="M486.434,231.47h-51.2c-14.132,0.015-25.585,11.468-25.6,25.6v247.467
			c0,4.713,3.82,8.533,8.533,8.533H503.5c4.713,0,8.533-3.82,8.533-8.533V257.07C512.018,242.938,500.566,231.485,486.434,231.47z
			 M494.967,496.003H426.7V257.07c0.006-4.71,3.823-8.527,8.533-8.533h51.2c4.71,0.006,8.527,3.823,8.533,8.533V496.003z"/>
		<path style="fill:#428DFF;" d="M460.834,18.137c-17.088-0.013-33.054,8.505-42.557,22.706c-9.504,14.201-11.29,32.209-4.761,48
			l-50.994,31.875c-9.175-10.401-22.194-16.613-36.051-17.203s-27.356,4.495-37.381,14.079l-55.852-41.889
			c11.808-22.839,4.844-50.893-16.274-65.559s-49.837-11.394-67.115,7.647s-17.751,47.942-1.108,67.54l-71.542,85.018
			c-22.94-13.498-52.397-7.168-67.766,14.564s-11.525,51.614,8.845,68.747s50.469,15.801,69.246-3.064s19.967-48.971,2.738-69.26
			l71.542-85.018c19.643,11.685,44.669,8.831,61.177-6.977l55.852,41.889c-10.87,21.055-5.868,46.819,12.091,62.277
			c17.959,15.458,44.181,16.568,63.383,2.684c19.202-13.884,26.365-39.132,17.314-61.031l50.994-31.875
			c15.633,17.597,41.254,22.258,62.083,11.296c20.829-10.962,31.493-34.72,25.84-57.569
			C504.883,34.166,484.371,18.122,460.834,18.137z M51.234,248.537c-18.851,0-34.133-15.282-34.133-34.133
			s15.282-34.133,34.133-34.133s34.133,15.282,34.133,34.133C85.345,233.246,70.076,248.515,51.234,248.537z M187.767,86.403
			c-18.851,0-34.133-15.282-34.133-34.133s15.282-34.133,34.133-34.133S221.9,33.419,221.9,52.27
			C221.879,71.112,206.609,86.382,187.767,86.403z M324.3,188.803c-18.851,0-34.133-15.282-34.133-34.133
			s15.282-34.133,34.133-34.133s34.133,15.282,34.133,34.133C358.412,173.512,343.143,188.782,324.3,188.803z M460.834,103.47
			c-18.851,0-34.133-15.282-34.133-34.133s15.282-34.133,34.133-34.133c18.851,0,34.133,15.282,34.133,34.133
			C494.945,88.179,479.676,103.448,460.834,103.47z"/>
	</g>
</g>
<g>
</g>
<g>
</g>
<g>
</g>
<g>
</g>
<g>
</g>
<g>
</g>
<g>
</g>
<g>
</g>
<g>
</g>
<g>
</g>
<g>
</g>
<g>
</g>
<g>
</g>
<g>
</g>
<g>
</g>
</svg>
