<?xml version="1.0"?>
<svg xmlns="http://www.w3.org/2000/svg" viewBox="0 0 64 64" width="512" height="512"><g id="Delivery_truck" data-name="Delivery truck"><path d="M46,40H43V56h4a5,5,0,0,1,10,0h2a2,2,0,0,0,2-2V40Z" style="fill:#b1d5ff"/><path d="M40,44H3V54a2,2,0,0,0,2,2h7a5,5,0,0,1,10,0H43V44Z" style="fill:#b1d5ff"/><rect x="43" y="30" width="3" height="10" style="fill:#b1d5ff"/><circle cx="17" cy="56" r="1" style="fill:#b1d5ff"/><circle cx="52" cy="56" r="1" style="fill:#b1d5ff"/><circle cx="17" cy="56" r="2" style="fill:#1e81ce"/><path d="M61.991,39.973a1,1,0,0,0-.21-.6l-8-10A1,1,0,0,0,53,29H44V20a1,1,0,0,0-1-1H3a1,1,0,0,0-1,1V54a3,3,0,0,0,3,3h6.09a5.993,5.993,0,0,0,11.82,0H46.09a5.993,5.993,0,0,0,11.82,0H59a3,3,0,0,0,3-3S61.992,39.982,61.991,39.973ZM17,60a4,4,0,1,1,4-4A4,4,0,0,1,17,60Zm25-8H24a1,1,0,0,0,0,2H42v1H22.91a5.993,5.993,0,0,0-11.82,0H5a1,1,0,0,1-1-1h6a1,1,0,0,0,0-2H4V45H42Zm0-9H4V32.947L15,33H15a1,1,0,0,0,.005-2L4,30.947v-2L10.993,29H11a1,1,0,0,0,.007-2L4,26.949V24.957L6.985,25H7a1,1,0,0,0,.015-2L4,22.956V21H42Zm5-12h5.52l6.4,8H47Zm-3,0h1v8H44Zm8,29a4,4,0,1,1,4-4A4,4,0,0,1,52,60Zm8-6a1,1,0,0,1-1,1H57.91a5.993,5.993,0,0,0-11.82,0H44V41H60Z" style="fill:#1e81ce"/><path d="M46,44h2a1,1,0,0,0,0-2H46a1,1,0,0,0,0,2Z" style="fill:#1e81ce"/><circle cx="52" cy="56" r="2" style="fill:#1e81ce"/></g></svg>
