<svg height="480pt" viewBox="0 0 480 480" width="480pt" xmlns="http://www.w3.org/2000/svg"><path d="m8 104h464v-96h-464zm400-64h32v32h-32zm-64 0h32v32h-32zm-64 0h32v32h-32zm0 0" fill="#9bc9ff"/><path d="m239.152344 344c8.820312.453125 16.339844-6.320312 16.800781-15.140625.464844-8.816406-6.304687-16.34375-15.121094-16.816406-8.820312-.46875-16.351562 6.292969-16.832031 15.109375-.230469 4.246094 1.238281 8.40625 4.078125 11.566406 2.84375 3.164062 6.828125 5.0625 11.074219 5.28125zm0 0" fill="#9bc9ff"/><g fill="#1e81ce"><path d="m472 0h-464c-4.417969 0-8 3.582031-8 8v464c0 4.417969 3.582031 8 8 8h464c4.417969 0 8-3.582031 8-8v-464c0-4.417969-3.582031-8-8-8zm-456 16h448v80h-448zm448 448h-448v-352h448zm0 0"/><path d="m440 80h-32c-4.417969 0-8-3.582031-8-8v-32c0-4.417969 3.582031-8 8-8h32c4.417969 0 8 3.582031 8 8v32c0 4.417969-3.582031 8-8 8zm-24-16h16v-16h-16zm0 0"/><path d="m376 80h-32c-4.417969 0-8-3.582031-8-8v-32c0-4.417969 3.582031-8 8-8h32c4.417969 0 8 3.582031 8 8v32c0 4.417969-3.582031 8-8 8zm-24-16h16v-16h-16zm0 0"/><path d="m312 80h-32c-4.417969 0-8-3.582031-8-8v-32c0-4.417969 3.582031-8 8-8h32c4.417969 0 8 3.582031 8 8v32c0 4.417969-3.582031 8-8 8zm-24-16h16v-16h-16zm0 0"/><path d="m232 168h16v32h-16zm0 0"/><path d="m190.859375 175.527344 15.457031-4.140625 8.28125 30.910156-15.457031 4.140625zm0 0"/><path d="m153.070312 193.433594 13.855469-8 16.003907 27.710937-13.855469 8.003907zm0 0"/><path d="m121.203125 220.519531 11.316406-11.3125 22.625 22.628907-11.3125 11.3125zm0 0"/><path d="m97.433594 254.933594 8-13.855469 27.714844 16.003906-8.003907 13.855469zm0 0"/><path d="m83.386719 294.3125 4.140625-15.453125 30.910156 8.28125-4.140625 15.453125zm0 0"/><path d="m80 320h32v16h-32zm0 0"/><path d="m83.386719 361.683594 30.910156-8.28125 4.140625 15.453125-30.910156 8.28125zm0 0"/><path d="m361.574219 368.855469 4.140625-15.453125 30.910156 8.28125-4.140625 15.457031zm0 0"/><path d="m368 320h32v16h-32zm0 0"/><path d="m361.566406 287.144531 30.910156-8.28125 4.140626 15.453125-30.910157 8.28125zm0 0"/><path d="m346.847656 257.070312 27.714844-16 7.996094 13.859376-27.714844 15.996093zm0 0"/><path d="m324.851562 231.832031 22.636719-22.632812 11.3125 11.316406-22.632812 22.632813zm0 0"/><path d="m297.070312 213.152344 15.996094-27.714844 13.859375 7.996094-16 27.714844zm0 0"/><path d="m265.40625 202.292969 8.28125-30.910157 15.457031 4.140626-8.285156 30.910156zm0 0"/><path d="m313.535156 265.777344-11.3125-11.3125-51.894531 51.886718c-8.757813-4.152343-19.152344-2.632812-26.355469 3.859376-7.199218 6.488281-9.789062 16.671874-6.5625 25.8125 3.226563 9.140624 11.632813 15.441406 21.308594 15.976562h1.304688c8.25.074219 15.945312-4.132812 20.339843-11.109375 4.398438-6.980469 4.863281-15.738281 1.238281-23.148437zm-68.191406 68.175781c-2.117188 1.960937-5.128906 2.628906-7.878906 1.746094-2.75-.878907-4.8125-3.175781-5.394532-6.003907-.582031-2.828124.40625-5.75 2.585938-7.648437 1.464844-1.320313 3.371094-2.050781 5.34375-2.046875h.433594c3.230468.171875 6.042968 2.273438 7.121094 5.328125 1.078124 3.050781.207031 6.453125-2.203126 8.617187zm0 0"/></g></svg>