<svg id="icons" enable-background="new 0 0 64 64" height="512" viewBox="0 0 64 64" width="512" xmlns="http://www.w3.org/2000/svg"><g><g><path d="m55.98 41.02v2.98l-2 1c0 2.77-2.23 5-5 5l-.98-1h-2l-1.02 1c-2.761 0-5-2.23-5-5l-2-1v-2.98l3-2.02s3.01 1 6.5 1c3.489 0 5.5-1 5.5-1z" fill="#d7e9ff"/></g><g><path d="m52.98 39-.003.001v4.999c0 3.53-2.04 6.59-5 8.06-.772.387-1.615.65-2.499.8.491.082.989.14 1.502.14 1.439 0 2.8-.34 4-.94 2.96-1.47 5-4.529 5-8.06v-2.98z" fill="#94c1ff"/></g><g><path d="m50.98 5v18h-3v2l-5-2h-5.98v-18z" fill="#d7e9ff"/></g><g><path d="m30 9v4h-12v-4c0-1.1.9-2 2-2h8c1.1 0 2 .9 2 2z" fill="#d7e9ff"/></g><g><path d="m27 17h4v3h-4z" fill="#5c9eff"/></g><g><path d="m40.98 39-3 2.02v-3.02c0-4.42 3.579-8 8-8h6v4c2.21 0 4 1.79 4 4v3.02l-3-2.02s-2.011 1-5.5 1c-3.49 0-6.5-1-6.5-1z" fill="#94c1ff"/></g><g><path d="m46.98 53c1.439 0 2.8-.34 4-.94v3.94l-2 1-2-1-2 1-2-1v-3.94c1.2.6 2.56.94 4 .94z" fill="#94c1ff"/></g><g><path d="m39.98 45c0 2.77 2.239 5 5 5l1.02-1h2l.98 1c2.77 0 5-2.23 5-5l2-1c0 3.53-2.04 6.59-5 8.06-1.2.601-2.561.94-4 .94-1.44 0-2.801-.34-4-.94-2.95-1.46-4.98-4.5-5-8.01v-.05z" fill="#94c1ff"/></g><g><path d="m51.041 49.548c-.824 1.047-1.861 1.915-3.063 2.512-.772.387-1.615.65-2.499.8.222.037.446.067.672.092.274.025.548.048.829.048 1.439 0 2.8-.34 4-.94 2.96-1.47 5-4.529 5-8.06l-2 1c0 2.032-1.206 3.765-2.939 4.548z" fill="#5c9eff"/></g><g><path d="m51.98 37c.552 0 1 .448 1 1v1l3 2.02v-3.02c0-2.21-1.79-4-4-4v-4h-3v4c0 1.657 1.343 3 3 3z" fill="#5c9eff"/></g><g><path d="m31 13v4h-4-6-4v-4h1 12z" fill="#94c1ff"/></g><g><path d="m46.98 56 2 1 2-1h3c2.77 0 5 2.24 5 5v2h-24v-2c0-2.76 2.239-5 5-5h3l2 1z" fill="#94c1ff"/></g><g><g><path d="m53.98 56h-3c2.768.002 4.997 2.241 4.997 5v2h3.003v-2c0-2.76-2.23-5-5-5z" fill="#5c9eff"/></g></g><g><path d="m17.02 56 2 1 2-1h3c2.761 0 5 2.24 5 5v2h-24v-2c0-2.76 2.23-5 5-5h3l2 1z" fill="#fff"/></g><g><g><path d="m24.02 56h-3c2.759.002 4.997 2.241 4.997 5v2h3.003v-2c0-2.76-2.24-5-5-5z" fill="#d7e9ff"/></g></g><g><path d="m24.02 33.67-3 4.16v.01c-2.659.34-5.92 2.67-13 1.8-.319-.04-.659-.09-1-.14 0-5.25 4.25-9.5 9.5-9.5 3.05 0 5.77 1.44 7.5 3.67z" fill="#94c1ff"/></g><g><path d="m17 17v3h4v-3h6v3h4v-3-4h-1v-4c0-1.1-.9-2-2-2h-8c-1.1 0-2 .9-2 2v4h-1zm20 6v3h-10l-5 2v-2h-11v-25h26v4z" fill="#fff"/></g><g><path d="m17 17h4v3h-4z" fill="#5c9eff"/></g><g><path d="m26.02 40.72v3.28c0 3.53-2.039 6.59-5 8.06-1.2.6-2.57.94-4 .94s-2.8-.34-4-.94c-2.96-1.47-5-4.529-5-8.06v-.04-4.32c7.08.87 10.341-1.46 13-1.8 1.64-.21 3.05.34 5 2.88z" fill="#d7e9ff"/></g><g><path d="m23.017 38.08v5.92c0 3.53-2.039 6.59-5 8.06-.771.386-1.616.649-2.498.8.491.082.989.14 1.501.14 1.431 0 2.801-.34 4-.94 2.961-1.47 5-4.529 5-8.06v-3.28c-1.133-1.477-2.083-2.267-3.003-2.64z" fill="#94c1ff"/></g><g><path d="m26.02 40.72c-1.949-2.54-3.359-3.09-5-2.88v-.01l3-4.16c1.261 1.61 2 3.64 2 5.83z" fill="#5c9eff"/></g><g><path d="m17.02 53c1.431 0 2.801-.34 4-.94v3.94l-2 1-2-1-2 1-2-1v-3.94c1.2.6 2.57.94 4 .94z" fill="#fff"/></g></g><g><g><path d="m34.981 61.999c-.553 0-1-.447-1-1 0-3.309 2.691-6 6-6 .553 0 1 .447 1 1s-.447 1-1 1c-2.206 0-4 1.794-4 4 0 .553-.447 1-1 1z" fill="#116fff"/></g><g><path d="m42.981 56.999h-3c-.553 0-1-.447-1-1s.447-1 1-1h3c.553 0 1 .447 1 1s-.447 1-1 1z" fill="#116fff"/></g><g><path d="m34.981 63.998c-.553 0-1-.447-1-1v-1.999c0-.553.447-1 1-1s1 .447 1 1v1.999c0 .553-.447 1-1 1z" fill="#116fff"/></g><g><path d="m58.981 61.999c-.553 0-1-.447-1-1 0-2.206-1.794-4-4-4-.553 0-1-.447-1-1s.447-1 1-1c3.309 0 6 2.691 6 6 0 .553-.447 1-1 1z" fill="#116fff"/></g><g><path d="m53.981 56.999h-3c-.553 0-1-.447-1-1s.447-1 1-1h3c.553 0 1 .447 1 1s-.447 1-1 1z" fill="#116fff"/></g><g><path d="m58.981 63.998c-.553 0-1-.447-1-1v-1.999c0-.553.447-1 1-1s1 .447 1 1v1.999c0 .553-.447 1-1 1z" fill="#116fff"/></g><g><path d="m42.981 56.999c-.553 0-1-.447-1-1v-3.936c0-.553.447-1 1-1s1 .447 1 1v3.936c0 .553-.447 1-1 1z" fill="#116fff"/></g><g><path d="m50.981 56.999c-.553 0-1-.447-1-1v-3.936c0-.553.447-1 1-1s1 .447 1 1v3.936c0 .553-.447 1-1 1z" fill="#116fff"/></g><g><path d="m46.98 53.999c-5.514 0-9.999-4.485-9.999-9.998 0-.553.447-1 1-1s1 .447 1 1c0 4.41 3.588 7.998 7.999 7.998 4.412 0 8.001-3.588 8.001-7.998 0-.553.447-1 1-1s1 .447 1 1c0 5.513-4.486 9.998-10.001 9.998z" fill="#116fff"/></g><g><path d="m37.981 45.05c-.553 0-1-.447-1-1v-6.051c0-.553.447-1 1-1s1 .447 1 1v6.051c0 .553-.447 1-1 1z" fill="#116fff"/></g><g><path d="m55.981 45.001c-.553 0-1-.447-1-1v-6.002c0-.553.447-1 1-1s1 .447 1 1v6.002c0 .553-.447 1-1 1z" fill="#116fff"/></g><g><path d="m55.981 38.999c-.553 0-1-.447-1-1 0-1.654-1.346-3-3-3-.553 0-1-.447-1-1s.447-1 1-1c2.757 0 5 2.243 5 5 0 .553-.447 1-1 1z" fill="#116fff"/></g><g><path d="m51.981 34.999c-.553 0-1-.447-1-1v-4c0-.553.447-1 1-1s1 .447 1 1v4c0 .553-.447 1-1 1z" fill="#116fff"/></g><g><path d="m51.981 30.999h-6c-.553 0-1-.447-1-1s.447-1 1-1h6c.553 0 1 .447 1 1s-.447 1-1 1z" fill="#116fff"/></g><g><path d="m37.981 38.999c-.553 0-1-.447-1-1 0-4.963 4.037-9 9-9 .553 0 1 .447 1 1s-.447 1-1 1c-3.859 0-7 3.141-7 7 0 .553-.447 1-1 1z" fill="#116fff"/></g><g><g><path d="m55.98 42.024c-.192 0-.387-.056-.559-.171l-3-2.025c-.458-.31-.578-.931-.27-1.389s.931-.577 1.389-.27l3 2.025c.458.31.578.931.27 1.389-.193.287-.508.441-.83.441z" fill="#116fff"/></g><g><path d="m47.481 40.999c-3.612 0-6.687-1.008-6.815-1.051-.523-.175-.807-.74-.634-1.264.174-.523.74-.809 1.264-.635.029.01 2.908.949 6.186.949 3.178 0 5.04-.888 5.059-.897.494-.24 1.094-.037 1.337.457s.043 1.09-.449 1.336c-.092.045-2.262 1.105-5.948 1.105z" fill="#116fff"/></g><g><path d="m37.982 42.024c-.321 0-.637-.154-.83-.44-.309-.458-.188-1.079.27-1.389l3-2.025c.459-.308 1.079-.188 1.389.27.309.458.188 1.079-.27 1.389l-3 2.025c-.172.115-.366.17-.559.17z" fill="#116fff"/></g></g><g><path d="m8.019 44.96c-.553 0-1-.447-1-1v-4.32c0-.553.447-1 1-1s1 .447 1 1v4.32c0 .553-.448 1-1 1z" fill="#116fff"/></g><g><path d="m26.019 44.999c-.553 0-1-.447-1-1v-4.5c0-.553.447-1 1-1s1 .447 1 1v4.5c0 .553-.448 1-1 1z" fill="#116fff"/></g><g><path d="m26.019 40.499c-.553 0-1-.447-1-1 0-4.687-3.813-8.5-8.501-8.5-4.687 0-8.499 3.813-8.499 8.5 0 .553-.447 1-1 1s-1-.447-1-1c0-5.79 4.71-10.5 10.499-10.5 5.79 0 10.501 4.71 10.501 10.5 0 .553-.448 1-1 1z" fill="#116fff"/></g><g><path d="m26.02 41.716c-.301 0-.598-.135-.795-.392-2.425-3.165-3.515-2.813-6.423-1.871-2.56.828-6.062 1.964-11.939 1.033-.545-.086-.918-.598-.831-1.144.086-.545.601-.921 1.144-.831 5.403.849 8.645-.196 11.011-.962 2.987-.966 5.346-1.728 8.627 2.558.336.438.253 1.066-.186 1.402-.183.139-.397.207-.608.207z" fill="#116fff"/></g><g><path d="m21.018 38.835c-.202 0-.406-.062-.583-.188-.448-.322-.55-.947-.228-1.396l3-4.168c.322-.448.947-.55 1.396-.228s.55.947.228 1.396l-3 4.168c-.196.271-.503.416-.813.416z" fill="#116fff"/></g><g><path d="m5.019 61.999c-.553 0-1-.447-1-1 0-3.309 2.691-6 6-6 .553 0 1 .447 1 1s-.447 1-1 1c-2.206 0-4 1.794-4 4 0 .553-.448 1-1 1z" fill="#116fff"/></g><g><path d="m13.019 56.999h-3c-.553 0-1-.447-1-1s.447-1 1-1h3c.553 0 1 .447 1 1s-.448 1-1 1z" fill="#116fff"/></g><g><path d="m5.019 63.998c-.553 0-1-.447-1-1v-1.999c0-.553.447-1 1-1s1 .447 1 1v1.999c0 .553-.448 1-1 1z" fill="#116fff"/></g><g><path d="m29.019 61.999c-.553 0-1-.447-1-1 0-2.206-1.794-4-4-4-.553 0-1-.447-1-1s.447-1 1-1c3.309 0 6 2.691 6 6 0 .553-.448 1-1 1z" fill="#116fff"/></g><g><path d="m24.019 56.999h-3c-.553 0-1-.447-1-1s.447-1 1-1h3c.553 0 1 .447 1 1s-.448 1-1 1z" fill="#116fff"/></g><g><path d="m29.019 63.998c-.553 0-1-.447-1-1v-1.999c0-.553.447-1 1-1s1 .447 1 1v1.999c0 .553-.448 1-1 1z" fill="#116fff"/></g><g><path d="m13.019 56.999c-.553 0-1-.447-1-1v-3.936c0-.553.447-1 1-1s1 .447 1 1v3.936c0 .553-.448 1-1 1z" fill="#116fff"/></g><g><path d="m21.019 56.999c-.553 0-1-.447-1-1v-3.936c0-.553.447-1 1-1s1 .447 1 1v3.936c0 .553-.448 1-1 1z" fill="#116fff"/></g><g><path d="m17.018 53.999c-5.514 0-9.999-4.485-9.999-9.998 0-.553.447-1 1-1s1 .447 1 1c0 4.41 3.588 7.998 7.999 7.998 4.412 0 8.001-3.588 8.001-7.998 0-.553.447-1 1-1s1 .447 1 1c0 5.513-4.487 9.998-10.001 9.998z" fill="#116fff"/></g><g><path d="m15.018 57.999c-.15 0-.303-.034-.446-.105l-2-1c-.494-.247-.694-.848-.447-1.342s.848-.692 1.342-.447l2 1c.494.247.694.848.447 1.342-.177.35-.529.552-.896.552z" fill="#116fff"/></g><g><path d="m15.02 57.999c-.367 0-.72-.202-.896-.553-.247-.494-.047-1.095.447-1.342l2-1c.494-.245 1.094-.047 1.342.447.247.494.047 1.095-.447 1.342l-2 1c-.144.072-.296.106-.446.106z" fill="#116fff"/></g><g><path d="m19.02 57.999c-.367 0-.72-.202-.896-.553-.247-.494-.047-1.095.447-1.342l2-1c.494-.245 1.095-.047 1.342.447s.047 1.095-.447 1.342l-2 1c-.144.072-.296.106-.446.106z" fill="#116fff"/></g><g><path d="m19.018 57.999c-.15 0-.303-.034-.446-.105l-2-1c-.494-.247-.694-.848-.447-1.342s.848-.692 1.342-.447l2 1c.494.247.694.848.447 1.342-.177.35-.529.552-.896.552z" fill="#116fff"/></g><g><path d="m44.98 57.999c-.15 0-.303-.034-.446-.105l-2-1c-.494-.247-.694-.848-.447-1.342s.848-.692 1.342-.447l2 1c.494.247.694.848.447 1.342-.176.35-.528.552-.896.552z" fill="#116fff"/></g><g><path d="m44.982 57.999c-.367 0-.72-.202-.896-.553-.247-.494-.047-1.095.447-1.342l2-1c.494-.245 1.095-.047 1.342.447s.047 1.095-.447 1.342l-2 1c-.143.072-.295.106-.446.106z" fill="#116fff"/></g><g><path d="m48.982 57.999c-.367 0-.72-.202-.896-.553-.247-.494-.047-1.095.447-1.342l2-1c.493-.245 1.094-.047 1.342.447.247.494.047 1.095-.447 1.342l-2 1c-.143.072-.295.106-.446.106z" fill="#116fff"/></g><g><path d="m48.98 57.999c-.15 0-.303-.034-.446-.105l-2-1c-.494-.247-.694-.848-.447-1.342.248-.494.847-.692 1.342-.447l2 1c.494.247.694.848.447 1.342-.176.35-.528.552-.896.552z" fill="#116fff"/></g><g><path d="m22.001 29c-.197 0-.393-.059-.561-.172-.274-.187-.439-.496-.439-.828v-1h-10.004c-.553 0-1-.447-1-1v-24.998c0-.553.447-1 1-1h26.002c.553 0 1 .447 1 1v24.998c0 .553-.447 1-1 1h-9.805l-4.822 1.929c-.119.048-.245.071-.371.071zm-10.004-4h10.004c.553 0 1 .447 1 1v.523l3.63-1.452c.118-.047.244-.071.371-.071h8.997v-22.998h-24.002z" fill="#116fff"/></g><g><path d="m47.983 26.002c-.126 0-.252-.023-.371-.071l-4.822-1.929h-5.809c-.553 0-1-.447-1-1s.447-1 1-1h6.001c.127 0 .253.024.371.071l3.63 1.452v-.523c0-.553.447-1 1-1h2v-16.001h-13.002c-.553 0-1-.447-1-1s.447-1 1-1h14.002c.553 0 1 .447 1 1v18.001c0 .553-.447 1-1 1h-2v1c0 .332-.165.642-.439.828-.168.113-.363.172-.561.172z" fill="#116fff"/></g><g><path d="m44.98 51.002c-.26 0-.519-.101-.715-.301-.386-.395-.379-1.027.016-1.414l1.02-.998c.396-.386 1.028-.378 1.414.016.386.395.379 1.027-.016 1.414l-1.02.998c-.194.19-.447.285-.699.285z" fill="#116fff"/></g><g><path d="m47.998 50.004h-1.998c-.553 0-1-.447-1-1s.447-1 1-1h1.998c.553 0 1 .447 1 1s-.447 1-1 1z" fill="#116fff"/></g><g><path d="m48.982 51.002c-.258 0-.517-.1-.712-.298l-.984-.998c-.388-.394-.384-1.026.01-1.414.392-.388 1.026-.384 1.414.01l.984.998c.388.394.384 1.026-.01 1.414-.194.192-.448.288-.702.288z" fill="#116fff"/></g><g><path d="m44.98 51.002c-3.309 0-6.001-2.691-6.001-6 0-.553.447-1 1-1s1 .447 1 1c0 2.206 1.795 4 4.001 4 .553 0 1 .447 1 1s-.447 1-1 1z" fill="#116fff"/></g><g><path d="m39.979 46.002c-.15 0-.303-.034-.447-.105l-1.998-1.001c-.493-.248-.693-.849-.446-1.343.248-.493.845-.692 1.343-.446l1.998 1.001c.493.248.693.849.446 1.343-.177.349-.529.551-.896.551z" fill="#116fff"/></g><g><path d="m48.982 51.002c-.553 0-1-.447-1-1s.447-1 1-1c2.206 0 4.001-1.794 4.001-4 0-.553.447-1 1-1s1 .447 1 1c0 3.309-2.692 6-6.001 6z" fill="#116fff"/></g><g><path d="m53.984 46.002c-.367 0-.72-.202-.896-.552-.247-.494-.047-1.095.446-1.343l1.998-1.001c.497-.246 1.095-.047 1.343.446.247.494.047 1.095-.446 1.343l-1.998 1.001c-.144.072-.296.106-.447.106z" fill="#116fff"/></g><g><g><path d="m30.999 18.004h-14.002c-.553 0-1-.447-1-1v-4c0-.553.447-1 1-1h14.002c.553 0 1 .447 1 1v4c0 .553-.447 1-1 1zm-13.002-2h12.002v-2h-12.002z" fill="#116fff"/></g><g><path d="m20.997 21.004h-4.001c-.553 0-1-.447-1-1v-3c0-.553.447-1 1-1h4.001c.553 0 1 .447 1 1v3c0 .553-.447 1-1 1zm-3.001-2h2.001v-1h-2.001z" fill="#116fff"/></g><g><path d="m31.001 21.004h-4.001c-.553 0-1-.447-1-1v-3c0-.553.447-1 1-1h4.001c.553 0 1 .447 1 1v3c0 .553-.447 1-1 1zm-3.001-2h2.001v-1h-2.001z" fill="#116fff"/></g><g><path d="m30 10.002c-.553 0-1-.447-1-1 0-.552-.448-1-1-1h-8.003c-.552 0-1 .448-1 1 0 .553-.447 1-1 1s-1-.447-1-1c0-1.654 1.346-3 3-3h8.003c1.654 0 3 1.346 3 3 0 .553-.447 1-1 1z" fill="#116fff"/></g><g><path d="m17.997 14.004c-.553 0-1-.447-1-1v-4.002c0-.553.447-1 1-1s1 .447 1 1v4.002c0 .553-.447 1-1 1z" fill="#116fff"/></g><g><path d="m30 14.004c-.553 0-1-.447-1-1v-4.002c0-.553.447-1 1-1s1 .447 1 1v4.002c0 .553-.447 1-1 1z" fill="#116fff"/></g><g><path d="m20.027 16.004c-.553 0-1.005-.447-1.005-1s.442-1 .994-1h.011c.552 0 1 .447 1 1s-.448 1-1 1z" fill="#116fff"/></g><g><path d="m28.03 16.004c-.553 0-1.005-.447-1.005-1s.442-1 .994-1h.011c.552 0 1 .447 1 1s-.448 1-1 1z" fill="#116fff"/></g></g></g></svg>