<svg height="512" viewBox="0 0 64 64" width="512" xmlns="http://www.w3.org/2000/svg"><g id="Location"><path d="m59 3h-7v12l-3-2-3 2v-12h-7a2 2 0 0 0 -2 2v20a2 2 0 0 0 2 2h20a2 2 0 0 0 2-2v-20a2 2 0 0 0 -2-2z" fill="#9bc9ff"/><path d="m23 44a10 10 0 0 0 -20 0c0 5.523 10 17 10 17s10-11.477 10-17zm-14 0a4 4 0 1 1 4 4 4 4 0 0 1 -4-4z" fill="#9bc9ff"/><g fill="#1e81ce"><path d="m59 2h-20a3 3 0 0 0 -3 3v20a3 3 0 0 0 3 3h20a3 3 0 0 0 3-3v-20a3 3 0 0 0 -3-3zm-8 2v9.131l-1.445-.963a1 1 0 0 0 -1.11 0l-1.445.963v-9.131zm9 21a1 1 0 0 1 -1 1h-20a1 1 0 0 1 -1-1v-20a1 1 0 0 1 1-1h6v11a1 1 0 0 0 1.555.832l2.445-1.632 2.445 1.63a1 1 0 0 0 1.555-.83v-11h6a1 1 0 0 1 1 1z"/><path d="m13 62a1 1 0 0 1 -.754-.343c-.418-.48-10.246-11.826-10.246-17.657a11 11 0 0 1 22 0c0 5.831-9.828 17.177-10.246 17.657a1 1 0 0 1 -.754.343zm0-27a9.011 9.011 0 0 0 -9 9c0 3.875 5.926 11.775 9 15.458 3.073-3.684 9-11.585 9-15.458a9.011 9.011 0 0 0 -9-9z"/><path d="m13 49a5 5 0 1 1 5-5 5.006 5.006 0 0 1 -5 5zm0-8a3 3 0 1 0 3 3 3 3 0 0 0 -3-3z"/><path d="m57 62h-39a1 1 0 0 1 0-2h39a3 3 0 0 0 0-6h-25a5 5 0 0 1 0-10h15a3 3 0 0 0 0-6h-15a5.006 5.006 0 0 1 -5-5v-4a3 3 0 0 0 -3-3h-15a7 7 0 0 1 0-14h24a1 1 0 0 1 0 2h-24a5 5 0 0 0 0 10h15a5.006 5.006 0 0 1 5 5v4a3 3 0 0 0 3 3h15a5 5 0 0 1 0 10h-15a3 3 0 0 0 0 6h25a5 5 0 0 1 0 10z"/></g></g></svg>